<svg width="180" height="52" viewBox="0 0 180 52" fill="none" xmlns="http://www.w3.org/2000/svg">
<path d="M40.1695 25.7191C40.1308 21.5292 43.6881 19.4908 43.8508 19.3959C41.8361 16.532 38.7135 16.1407 37.6161 16.1095C34.9935 15.8404 32.4495 17.6396 31.1135 17.6396C29.7508 17.6396 27.6935 16.1355 25.4761 16.1797C22.6228 16.2226 19.9535 17.8333 18.4895 20.3345C15.4681 25.4344 17.7215 32.9289 20.6161 37.0512C22.0641 39.0701 23.7561 41.3243 25.9708 41.245C28.1375 41.1579 28.9468 39.8982 31.5615 39.8982C34.1521 39.8982 34.9121 41.245 37.1708 41.1943C39.4961 41.1579 40.9601 39.1663 42.3575 37.1292C44.0308 34.8152 44.7028 32.5363 44.7295 32.4193C44.6748 32.4011 40.2135 30.741 40.1695 25.7191Z" fill="white"/>
<path d="M35.9028 13.3977C37.0681 11.9768 37.8655 10.0437 37.6441 8.08203C35.9575 8.15483 33.8481 9.21953 32.6335 10.6092C31.5588 11.8338 30.5988 13.841 30.8468 15.7286C32.7415 15.8664 34.6868 14.7965 35.9028 13.3977Z" fill="white"/>
<path d="M65.3997 13.0117C65.3997 14.5418 64.9291 15.6936 63.989 16.4671C63.1184 17.1808 61.881 17.5383 60.2784 17.5383C59.4837 17.5383 58.8037 17.5045 58.2344 17.4369V9.07658C58.977 8.95958 59.777 8.89978 60.641 8.89978C62.1677 8.89978 63.3184 9.22348 64.0944 9.87088C64.9637 10.6028 65.3997 11.6493 65.3997 13.0117ZM63.9264 13.0494C63.9264 12.0575 63.657 11.297 63.1184 10.7666C62.5797 10.2375 61.793 9.97228 60.757 9.97228C60.317 9.97228 59.9424 10.0009 59.6317 10.0607V16.4164C59.8037 16.4424 60.1184 16.4541 60.5757 16.4541C61.645 16.4541 62.4704 16.1642 63.0517 15.5844C63.6331 15.0046 63.9264 14.1596 63.9264 13.0494Z" fill="white"/>
<path d="M73.2107 14.348C73.2107 15.2905 72.9347 16.0627 72.3827 16.6685C71.804 17.2912 71.0374 17.6019 70.08 17.6019C69.1574 17.6019 68.4227 17.3042 67.8747 16.7062C67.328 16.1095 67.0547 15.3568 67.0547 14.4494C67.0547 13.5004 67.336 12.7217 67.9014 12.1172C68.4667 11.5127 69.2267 11.2098 70.184 11.2098C71.1067 11.2098 71.848 11.5075 72.4094 12.1042C72.9427 12.684 73.2107 13.4328 73.2107 14.348ZM71.7614 14.3922C71.7614 13.8267 71.636 13.3418 71.3867 12.9375C71.0934 12.4487 70.676 12.2043 70.1334 12.2043C69.572 12.2043 69.1454 12.4487 68.852 12.9375C68.6014 13.3418 68.4774 13.8345 68.4774 14.4169C68.4774 14.9824 68.6027 15.4673 68.852 15.8716C69.1547 16.3604 69.576 16.6048 70.12 16.6048C70.6534 16.6048 71.072 16.3565 71.3734 15.8586C71.632 15.4465 71.7614 14.9577 71.7614 14.3922Z" fill="white"/>
<path d="M83.6848 11.3348L81.7181 17.463H80.4381L79.6235 14.8019C79.4168 14.1376 79.2488 13.4772 79.1181 12.822H79.0928C78.9715 13.4954 78.8035 14.1545 78.5875 14.8019L77.7221 17.463H76.4275L74.5781 11.3348H76.0141L76.7248 14.2481C76.8968 14.9371 77.0381 15.5936 77.1515 16.215H77.1768C77.2808 15.7028 77.4528 15.0502 77.6955 14.2611L78.5875 11.3361H79.7261L80.5808 14.1987C80.7875 14.8968 80.9555 15.5689 81.0848 16.2163H81.1235C81.2181 15.5858 81.3608 14.9137 81.5501 14.1987L82.3128 11.3361H83.6848V11.3348Z" fill="white"/>
<path d="M90.9312 17.4628H89.5339V13.9528C89.5339 12.8712 89.1125 12.3304 88.2672 12.3304C87.8525 12.3304 87.5179 12.4786 87.2579 12.7763C87.0005 13.074 86.8699 13.425 86.8699 13.8267V17.4615H85.4725V13.0857C85.4725 12.5475 85.4552 11.9638 85.4219 11.332H86.6499L86.7152 12.2901H86.7539C86.9165 11.9924 87.1592 11.7467 87.4779 11.5504C87.8565 11.3216 88.2805 11.2059 88.7445 11.2059C89.3312 11.2059 89.8192 11.3905 90.2072 11.761C90.6899 12.2147 90.9312 12.892 90.9312 13.7916V17.4628Z" fill="white"/>
<path d="M94.7827 17.4629H93.3867V8.52283H94.7827V17.4629Z" fill="white"/>
<path d="M103.011 14.348C103.011 15.2905 102.735 16.0627 102.183 16.6685C101.605 17.2912 100.837 17.6019 99.8808 17.6019C98.9568 17.6019 98.2221 17.3042 97.6755 16.7062C97.1288 16.1095 96.8555 15.3568 96.8555 14.4494C96.8555 13.5004 97.1368 12.7217 97.7021 12.1172C98.2675 11.5127 99.0275 11.2098 99.9835 11.2098C100.907 11.2098 101.647 11.5075 102.21 12.1042C102.743 12.684 103.011 13.4328 103.011 14.348ZM101.561 14.3922C101.561 13.8267 101.435 13.3418 101.186 12.9375C100.894 12.4487 100.475 12.2043 99.9341 12.2043C99.3715 12.2043 98.9448 12.4487 98.6528 12.9375C98.4021 13.3418 98.2781 13.8345 98.2781 14.4169C98.2781 14.9824 98.4035 15.4673 98.6528 15.8716C98.9555 16.3604 99.3768 16.6048 99.9208 16.6048C100.454 16.6048 100.871 16.3565 101.173 15.8586C101.433 15.4465 101.561 14.9577 101.561 14.3922Z" fill="white"/>
<path d="M109.773 17.463H108.519L108.415 16.7571H108.376C107.947 17.32 107.335 17.6021 106.54 17.6021C105.947 17.6021 105.467 17.4162 105.105 17.047C104.777 16.7116 104.613 16.2943 104.613 15.799C104.613 15.0502 104.933 14.4795 105.577 14.0843C106.22 13.6891 107.124 13.4954 108.288 13.5045V13.3901C108.288 12.5828 107.853 12.1798 106.983 12.1798C106.363 12.1798 105.816 12.3319 105.344 12.6335L105.06 11.7391C105.644 11.3868 106.365 11.21 107.216 11.21C108.859 11.21 109.683 12.055 109.683 13.745V16.0018C109.683 16.6141 109.713 17.1016 109.773 17.463ZM108.323 15.357V14.4119C106.781 14.3859 106.011 14.798 106.011 15.6469C106.011 15.9667 106.099 16.2059 106.279 16.3658C106.459 16.5257 106.688 16.605 106.961 16.605C107.268 16.605 107.555 16.5101 107.816 16.3216C108.079 16.1318 108.24 15.8913 108.3 15.5962C108.315 15.5299 108.323 15.4493 108.323 15.357Z" fill="white"/>
<path d="M117.711 17.4629H116.471L116.406 16.4788H116.367C115.971 17.2276 115.296 17.602 114.348 17.602C113.591 17.602 112.96 17.3121 112.46 16.7323C111.96 16.1525 111.711 15.3998 111.711 14.4755C111.711 13.4836 111.982 12.6802 112.526 12.0666C113.052 11.4946 113.698 11.2086 114.466 11.2086C115.31 11.2086 115.9 11.4855 116.236 12.0406H116.263V8.52283H117.662V15.8119C117.662 16.4086 117.678 16.9585 117.711 17.4629ZM116.263 14.8785V13.8567C116.263 13.6799 116.25 13.5369 116.224 13.4277C116.146 13.1001 115.976 12.8245 115.719 12.6022C115.459 12.3799 115.146 12.2681 114.784 12.2681C114.263 12.2681 113.855 12.4696 113.555 12.8739C113.258 13.2782 113.107 13.7943 113.107 14.4248C113.107 15.0306 113.25 15.522 113.536 15.9003C113.839 16.3033 114.247 16.5048 114.758 16.5048C115.216 16.5048 115.583 16.3371 115.862 16.0004C116.131 15.6897 116.263 15.3153 116.263 14.8785Z" fill="white"/>
<path d="M129.664 14.3482C129.664 15.2907 129.388 16.0629 128.836 16.6687C128.257 17.2914 127.492 17.6021 126.533 17.6021C125.612 17.6021 124.877 17.3044 124.328 16.7064C123.781 16.1097 123.508 15.357 123.508 14.4496C123.508 13.5006 123.789 12.7219 124.354 12.1174C124.92 11.5129 125.68 11.21 126.638 11.21C127.56 11.21 128.302 11.5077 128.862 12.1044C129.396 12.6842 129.664 13.433 129.664 14.3482ZM128.216 14.3924C128.216 13.8269 128.09 13.342 127.841 12.9377C127.546 12.4489 127.13 12.2045 126.586 12.2045C126.026 12.2045 125.6 12.4489 125.305 12.9377C125.054 13.342 124.93 13.8347 124.93 14.4171C124.93 14.9826 125.056 15.4675 125.305 15.8718C125.608 16.3606 126.029 16.605 126.573 16.605C127.106 16.605 127.526 16.3567 127.828 15.8588C128.085 15.4467 128.216 14.9579 128.216 14.3924Z" fill="white"/>
<path d="M137.176 17.4628H135.78V13.9528C135.78 12.8712 135.359 12.3304 134.512 12.3304C134.097 12.3304 133.763 12.4786 133.504 12.7763C133.245 13.074 133.116 13.425 133.116 13.8267V17.4615H131.717V13.0857C131.717 12.5475 131.701 11.9638 131.668 11.332H132.895L132.96 12.2901H132.999C133.163 11.9924 133.405 11.7467 133.723 11.5504C134.103 11.3216 134.525 11.2059 134.991 11.2059C135.576 11.2059 136.064 11.3905 136.452 11.761C136.936 12.2147 137.176 12.892 137.176 13.7916V17.4628Z" fill="white"/>
<path d="M146.582 12.3552H145.043V15.3322C145.043 16.0888 145.317 16.4671 145.858 16.4671C146.109 16.4671 146.317 16.4463 146.481 16.4034L146.517 17.4369C146.241 17.5383 145.878 17.589 145.431 17.589C144.879 17.589 144.45 17.4252 144.139 17.0976C143.827 16.77 143.673 16.2188 143.673 15.4453V12.3552H142.754V11.3347H143.673V10.2115L145.042 9.80847V11.3334H146.581V12.3552H146.582Z" fill="white"/>
<path d="M153.978 17.4629H152.58V13.9789C152.58 12.8804 152.158 12.3305 151.314 12.3305C150.666 12.3305 150.224 12.649 149.981 13.286C149.94 13.4199 149.916 13.5837 149.916 13.7761V17.4616H148.52V8.52283H149.916V12.2161H149.942C150.382 11.544 151.013 11.2086 151.83 11.2086C152.409 11.2086 152.888 11.3932 153.268 11.7637C153.741 12.2252 153.978 12.9116 153.978 13.819V17.4629Z" fill="white"/>
<path d="M161.611 14.1088C161.611 14.3532 161.593 14.5586 161.559 14.7263H157.369C157.387 15.3321 157.587 15.7936 157.975 16.1134C158.33 16.3994 158.787 16.5424 159.347 16.5424C159.967 16.5424 160.533 16.4462 161.042 16.2525L161.261 17.1989C160.665 17.4511 159.963 17.5772 159.151 17.5772C158.178 17.5772 157.411 17.2977 156.857 16.7387C156.299 16.1797 156.023 15.4296 156.023 14.4884C156.023 13.5641 156.281 12.7945 156.799 12.1809C157.341 11.5257 158.073 11.1981 158.997 11.1981C159.901 11.1981 160.587 11.5257 161.051 12.1809C161.426 12.7009 161.611 13.3444 161.611 14.1088ZM160.278 13.7565C160.289 13.3522 160.197 13.0038 160.007 12.71C159.765 12.3317 159.395 12.1419 158.895 12.1419C158.439 12.1419 158.067 12.3265 157.783 12.697C157.551 12.9921 157.414 13.3444 157.369 13.7565H160.278Z" fill="white"/>
<path d="M71.5269 40.9551H68.4989L66.8402 35.8734H61.0749L59.4949 40.9551H56.5469L62.2589 23.6547H65.7869L71.5269 40.9551ZM66.3402 33.7414L64.8402 29.2239C64.6815 28.7624 64.3842 27.6756 63.9455 25.9648H63.8922C63.7175 26.7006 63.4362 27.7874 63.0495 29.2239L61.5762 33.7414H66.3402Z" fill="white"/>
<path d="M86.2159 34.5646C86.2159 36.6862 85.6279 38.3632 84.4519 39.5943C83.3985 40.6902 82.0905 41.2375 80.5292 41.2375C78.8439 41.2375 77.6332 40.6473 76.8959 39.4669H76.8425V46.0384H73.9999V32.5873C73.9999 31.2535 73.9639 29.8846 73.8945 28.4806H76.3945L76.5532 30.4579H76.6065C77.5545 28.9681 78.9932 28.2245 80.9239 28.2245C82.4332 28.2245 83.6932 28.8056 84.7012 29.9691C85.7119 31.1339 86.2159 32.6653 86.2159 34.5646ZM83.3199 34.666C83.3199 33.4518 83.0399 32.4508 82.4772 31.663C81.8625 30.8414 81.0372 30.4306 80.0025 30.4306C79.3012 30.4306 78.6639 30.6594 78.0945 31.1105C77.5239 31.5655 77.1505 32.1596 76.9759 32.8954C76.8879 33.2386 76.8439 33.5194 76.8439 33.7404V35.8204C76.8439 36.7278 77.1292 37.4935 77.6999 38.1188C78.2705 38.7441 79.0119 39.0561 79.9239 39.0561C80.9945 39.0561 81.8279 38.6531 82.4239 37.8497C83.0212 37.045 83.3199 35.9842 83.3199 34.666Z" fill="white"/>
<path d="M100.933 34.5646C100.933 36.6862 100.345 38.3632 99.168 39.5943C98.116 40.6902 96.8079 41.2375 95.2466 41.2375C93.5613 41.2375 92.3506 40.6473 91.6146 39.4669H91.5613V46.0384H88.7186V32.5873C88.7186 31.2535 88.6826 29.8846 88.6133 28.4806H91.1133L91.272 30.4579H91.3253C92.2719 28.9681 93.7106 28.2245 95.6426 28.2245C97.1506 28.2245 98.4106 28.8056 99.4213 29.9691C100.428 31.1339 100.933 32.6653 100.933 34.5646ZM98.0373 34.666C98.0373 33.4518 97.7559 32.4508 97.1933 31.663C96.5786 30.8414 95.756 30.4306 94.72 30.4306C94.0173 30.4306 93.3813 30.6594 92.8106 31.1105C92.24 31.5655 91.8679 32.1596 91.6933 32.8954C91.6066 33.2386 91.5613 33.5194 91.5613 33.7404V35.8204C91.5613 36.7278 91.8466 37.4935 92.4146 38.1188C92.9853 38.7428 93.7266 39.0561 94.6413 39.0561C95.712 39.0561 96.5453 38.6531 97.1413 37.8497C97.7386 37.045 98.0373 35.9842 98.0373 34.666Z" fill="white"/>
<path d="M117.383 36.1035C117.383 37.5751 116.859 38.7724 115.807 39.6967C114.651 40.7068 113.042 41.2112 110.974 41.2112C109.064 41.2112 107.534 40.8524 106.375 40.1335L107.034 37.8234C108.282 38.5592 109.651 38.9284 111.143 38.9284C112.214 38.9284 113.047 38.6918 113.646 38.2212C114.242 37.7506 114.539 37.1188 114.539 36.331C114.539 35.629 114.294 35.0375 113.802 34.5578C113.312 34.0781 112.495 33.6322 111.354 33.2201C108.247 32.0904 106.695 30.4355 106.695 28.2593C106.695 26.8371 107.239 25.671 108.328 24.7636C109.414 23.8549 110.862 23.4012 112.672 23.4012C114.287 23.4012 115.628 23.6755 116.699 24.2228L115.988 26.4822C114.988 25.9518 113.858 25.6866 112.592 25.6866C111.592 25.6866 110.811 25.9271 110.251 26.4055C109.778 26.8332 109.54 27.3545 109.54 27.972C109.54 28.6558 109.811 29.2213 110.355 29.6659C110.828 30.0767 111.688 30.5213 112.936 31.001C114.463 31.6003 115.584 32.301 116.306 33.1044C117.024 33.9052 117.383 34.9075 117.383 36.1035Z" fill="white"/>
<path d="M126.784 30.5604H123.651V36.6171C123.651 38.1576 124.203 38.9272 125.31 38.9272C125.818 38.9272 126.239 38.8843 126.572 38.7985L126.651 40.9032C126.091 41.1073 125.354 41.21 124.44 41.21C123.318 41.21 122.44 40.8759 121.807 40.209C121.176 39.5408 120.859 38.4202 120.859 36.8459V30.5578H118.992V28.4778H120.859V26.1937L123.651 25.3721V28.4778H126.784V30.5604Z" fill="white"/>
<path d="M140.923 34.615C140.923 36.5325 140.36 38.1068 139.237 39.3379C138.06 40.6054 136.497 41.2372 134.549 41.2372C132.672 41.2372 131.177 40.6301 130.063 39.4159C128.948 38.2017 128.391 36.669 128.391 34.8217C128.391 32.8886 128.964 31.3052 130.115 30.0741C131.263 28.8417 132.812 28.2255 134.76 28.2255C136.637 28.2255 138.148 28.8326 139.288 30.0481C140.379 31.2272 140.923 32.7495 140.923 34.615ZM137.973 34.7047C137.973 33.5542 137.721 32.5675 137.211 31.7446C136.615 30.7488 135.763 30.2522 134.659 30.2522C133.516 30.2522 132.648 30.7501 132.052 31.7446C131.541 32.5688 131.289 33.5711 131.289 34.7567C131.289 35.9072 131.541 36.8939 132.052 37.7155C132.667 38.7113 133.525 39.2079 134.633 39.2079C135.719 39.2079 136.571 38.7009 137.185 37.6895C137.709 36.851 137.973 35.8539 137.973 34.7047Z" fill="white"/>
<path d="M150.162 30.9178C149.88 30.8671 149.58 30.8411 149.266 30.8411C148.266 30.8411 147.492 31.209 146.948 31.9461C146.475 32.5961 146.238 33.4177 146.238 34.4096V40.9551H143.396L143.423 32.4089C143.423 30.9711 143.387 29.662 143.316 28.4816H145.792L145.896 30.8684H145.975C146.275 30.0481 146.748 29.3877 147.396 28.8924C148.03 28.4465 148.714 28.2242 149.451 28.2242C149.714 28.2242 149.951 28.2424 150.162 28.2749V30.9178Z" fill="white"/>
<path d="M162.875 34.1276C162.875 34.6242 162.841 35.0428 162.771 35.3847H154.243C154.276 36.6171 154.688 37.5596 155.48 38.2096C156.199 38.7907 157.128 39.0819 158.269 39.0819C159.532 39.0819 160.684 38.8856 161.72 38.4917L162.165 40.4157C160.955 40.9305 159.525 41.1866 157.876 41.1866C155.892 41.1866 154.335 40.6172 153.201 39.4797C152.071 38.3422 151.504 36.8147 151.504 34.8985C151.504 33.0174 152.031 31.4509 153.085 30.2016C154.189 28.8678 155.681 28.2009 157.559 28.2009C159.403 28.2009 160.799 28.8678 161.747 30.2016C162.497 31.2611 162.875 32.5715 162.875 34.1276ZM160.164 33.4087C160.183 32.5871 159.997 31.8773 159.612 31.278C159.12 30.5071 158.364 30.1223 157.347 30.1223C156.417 30.1223 155.661 30.498 155.084 31.252C154.611 31.8513 154.329 32.5702 154.243 33.4074H160.164V33.4087Z" fill="white"/>
</svg>
