<svg width="343" height="55" viewBox="0 0 343 55" fill="none" xmlns="http://www.w3.org/2000/svg">
<rect width="343" height="55" fill="white"/>
<rect x="2" y="25" width="4" height="4" rx="2" fill="#4385FF"/>
<rect x="10" y="25" width="4" height="4" rx="2" fill="#4385FF"/>
<rect x="18" y="25" width="4" height="4" rx="2" fill="#4385FF"/>
<rect x="26" y="25" width="4" height="4" rx="2" fill="#4385FF"/>
<rect x="34" y="25" width="4" height="4" rx="2" fill="#4385FF"/>
<rect x="42" y="25" width="4" height="4" rx="2" fill="#4385FF"/>
<rect x="50" y="25" width="4" height="4" rx="2" fill="#4385FF"/>
<rect x="58" y="25" width="4" height="4" rx="2" fill="#4385FF"/>
<rect x="66" y="25" width="4" height="4" rx="2" fill="#4385FF"/>
<rect x="74" y="24" width="4" height="6" rx="2" fill="#4385FF"/>
<rect x="82" y="22" width="4" height="10" rx="2" fill="#4385FF"/>
<rect x="90" y="19" width="4" height="16" rx="2" fill="#4385FF"/>
<rect x="98" y="15" width="4" height="24" rx="2" fill="#4385FF"/>
<rect x="106" y="12" width="4" height="30" rx="2" fill="#4385FF"/>
<rect x="114" y="9" width="4" height="36" rx="2" fill="#4385FF"/>
<rect x="122" y="12" width="4" height="30" rx="2" fill="#4385FF"/>
<rect x="130" y="15" width="4" height="24" rx="2" fill="#4385FF"/>
<rect x="138" y="19" width="4" height="16" rx="2" fill="#4385FF"/>
<rect x="146" y="22" width="4" height="10" rx="2" fill="#4385FF"/>
<rect x="154" y="24" width="4" height="6" rx="2" fill="#4385FF"/>
<rect x="162" y="25" width="4" height="4" rx="2" fill="#4385FF"/>
<rect x="178" y="25" width="4" height="4" rx="2" fill="#4385FF"/>
<rect x="186" y="24" width="4" height="6" rx="2" fill="#4385FF"/>
<rect x="194" y="22" width="4" height="10" rx="2" fill="#4385FF"/>
<rect x="202" y="19" width="4" height="16" rx="2" fill="#4385FF"/>
<rect x="210" y="15" width="4" height="24" rx="2" fill="#4385FF"/>
<rect x="218" y="12" width="4" height="30" rx="2" fill="#4385FF"/>
<rect x="226" y="9" width="4" height="36" rx="2" fill="#4385FF"/>
<rect x="234" y="12" width="4" height="30" rx="2" fill="#4385FF"/>
<rect x="242" y="15" width="4" height="24" rx="2" fill="#4385FF"/>
<rect x="250" y="19" width="4" height="16" rx="2" fill="#4385FF"/>
<rect x="258" y="22" width="4" height="10" rx="2" fill="#4385FF"/>
<rect x="266" y="24" width="4" height="6" rx="2" fill="#4385FF"/>
<rect x="274" y="25" width="4" height="4" rx="2" fill="#4385FF"/>
<rect x="170" y="25" width="4" height="4" rx="2" fill="#4385FF"/>
<rect x="282" y="25" width="4" height="4" rx="2" fill="#4385FF"/>
<rect x="290" y="25" width="4" height="4" rx="2" fill="#4385FF"/>
<rect x="298" y="25" width="4" height="4" rx="2" fill="#4385FF"/>
<rect x="306" y="25" width="4" height="4" rx="2" fill="#4385FF"/>
<rect x="314" y="25" width="4" height="4" rx="2" fill="#4385FF"/>
<rect x="322" y="25" width="4" height="4" rx="2" fill="#4385FF"/>
<rect x="330" y="25" width="4" height="4" rx="2" fill="#4385FF"/>
<rect x="338" y="25" width="4" height="4" rx="2" fill="#4385FF"/>
</svg>
