<svg width="188" height="20" viewBox="0 0 188 20" fill="none" xmlns="http://www.w3.org/2000/svg">
<rect width="4" height="20" rx="2" fill="#4385FF"/>
<rect x="8" y="4" width="4" height="12" rx="2" fill="#4385FF"/>
<rect x="16" y="1" width="4" height="18" rx="2" fill="#4385FF"/>
<rect x="24" width="4" height="20" rx="2" fill="#4385FF"/>
<rect x="32" y="4" width="4" height="12" rx="2" fill="#4385FF"/>
<rect x="40" y="2" width="4" height="16" rx="2" fill="#4385FF"/>
<rect x="48" width="4" height="20" rx="2" fill="#4385FF"/>
<rect x="56" y="5" width="4" height="10" rx="2" fill="#4385FF"/>
<rect x="64" y="3" width="4" height="14" rx="2" fill="#4385FF"/>
<rect x="72" y="1" width="4" height="18" rx="2" fill="#4385FF"/>
<rect x="80" y="6" width="4" height="8" rx="2" fill="#4385FF"/>
<rect x="88" y="3" width="4" height="14" rx="2" fill="#4385FF"/>
<rect x="96" y="6" width="4" height="8" rx="2" fill="#4385FF"/>
<rect x="104" y="1" width="4" height="18" rx="2" fill="#BFBFC5"/>
<rect x="112" y="4" width="4" height="12" rx="2" fill="#BFBFC5"/>
<rect x="120" y="1" width="4" height="18" rx="2" fill="#BFBFC5"/>
<rect x="128" width="4" height="20" rx="2" fill="#BFBFC5"/>
<rect x="136" y="4" width="4" height="12" rx="2" fill="#BFBFC5"/>
<rect x="144" y="2" width="4" height="16" rx="2" fill="#BFBFC5"/>
<rect x="152" width="4" height="20" rx="2" fill="#BFBFC5"/>
<rect x="160" y="5" width="4" height="10" rx="2" fill="#BFBFC5"/>
<rect x="168" y="3" width="4" height="14" rx="2" fill="#BFBFC5"/>
<rect x="176" y="1" width="4" height="18" rx="2" fill="#BFBFC5"/>
<rect x="184" y="6" width="4" height="8" rx="2" fill="#BFBFC5"/>
</svg>
