<svg width="188" height="20" viewBox="0 0 188 20" fill="none" xmlns="http://www.w3.org/2000/svg">
<rect y="8" width="4" height="4" rx="2" fill="#BFBFC5"/>
<rect x="8" y="8" width="4" height="4" rx="2" fill="#BFBFC5"/>
<rect x="16" y="8" width="4" height="4" rx="2" fill="#BFBFC5"/>
<rect x="24" y="8" width="4" height="4" rx="2" fill="#BFBFC5"/>
<rect x="32" y="8" width="4" height="4" rx="2" fill="#BFBFC5"/>
<rect x="40" y="8" width="4" height="4" rx="2" fill="#BFBFC5"/>
<rect x="48" y="8" width="4" height="4" rx="2" fill="#BFBFC5"/>
<rect x="56" y="8" width="4" height="4" rx="2" fill="#BFBFC5"/>
<rect x="64" y="8" width="4" height="4" rx="2" fill="#BFBFC5"/>
<rect x="72" y="8" width="4" height="4" rx="2" fill="#BFBFC5"/>
<rect x="80" y="8" width="4" height="4" rx="2" fill="#BFBFC5"/>
<rect x="88" y="8" width="4" height="4" rx="2" fill="#BFBFC5"/>
<rect x="96" y="8" width="4" height="4" rx="2" fill="#BFBFC5"/>
<rect x="104" y="8" width="4" height="4" rx="2" fill="#BFBFC5"/>
<rect x="112" y="8" width="4" height="4" rx="2" fill="#BFBFC5"/>
<rect x="120" y="8" width="4" height="4" rx="2" fill="#BFBFC5"/>
<rect x="128" y="8" width="4" height="4" rx="2" fill="#BFBFC5"/>
<rect x="136" y="8" width="4" height="4" rx="2" fill="#BFBFC5"/>
<rect x="144" y="8" width="4" height="4" rx="2" fill="#BFBFC5"/>
<rect x="152" y="8" width="4" height="4" rx="2" fill="#BFBFC5"/>
<rect x="160" y="8" width="4" height="4" rx="2" fill="#BFBFC5"/>
<rect x="168" y="8" width="4" height="4" rx="2" fill="#BFBFC5"/>
<rect x="176" y="8" width="4" height="4" rx="2" fill="#BFBFC5"/>
<rect x="184" y="8" width="4" height="4" rx="2" fill="#BFBFC5"/>
</svg>
