<svg width="88" height="88" viewBox="0 0 88 88" fill="none" xmlns="http://www.w3.org/2000/svg">
<g filter="url(#filter0_dd_1_2696)">
<rect x="12" y="12" width="64" height="64" rx="32" fill="#4386FF"/>
</g>
<path d="M44 47C45.0609 47 46.0783 46.5786 46.8284 45.8284C47.5786 45.0783 48 44.0609 48 43V37C48 35.9391 47.5786 34.9217 46.8284 34.1716C46.0783 33.4214 45.0609 33 44 33C42.9391 33 41.9217 33.4214 41.1716 34.1716C40.4214 34.9217 40 35.9391 40 37V43C40 44.0609 40.4214 45.0783 41.1716 45.8284C41.9217 46.5786 42.9391 47 44 47ZM42 37C42 36.4696 42.2107 35.9609 42.5858 35.5858C42.9609 35.2107 43.4696 35 44 35C44.5304 35 45.0391 35.2107 45.4142 35.5858C45.7893 35.9609 46 36.4696 46 37V43C46 43.5304 45.7893 44.0391 45.4142 44.4142C45.0391 44.7893 44.5304 45 44 45C43.4696 45 42.9609 44.7893 42.5858 44.4142C42.2107 44.0391 42 43.5304 42 43V37ZM52 43C52 42.7348 51.8946 42.4804 51.7071 42.2929C51.5196 42.1054 51.2652 42 51 42C50.7348 42 50.4804 42.1054 50.2929 42.2929C50.1054 42.4804 50 42.7348 50 43C50 44.5913 49.3679 46.1174 48.2426 47.2426C47.1174 48.3679 45.5913 49 44 49C42.4087 49 40.8826 48.3679 39.7574 47.2426C38.6321 46.1174 38 44.5913 38 43C38 42.7348 37.8946 42.4804 37.7071 42.2929C37.5196 42.1054 37.2652 42 37 42C36.7348 42 36.4804 42.1054 36.2929 42.2929C36.1054 42.4804 36 42.7348 36 43C36.0018 44.9473 36.7137 46.8271 38.0024 48.287C39.2911 49.7469 41.068 50.6866 43 50.93V53H41C40.7348 53 40.4804 53.1054 40.2929 53.2929C40.1054 53.4804 40 53.7348 40 54C40 54.2652 40.1054 54.5196 40.2929 54.7071C40.4804 54.8946 40.7348 55 41 55H47C47.2652 55 47.5196 54.8946 47.7071 54.7071C47.8946 54.5196 48 54.2652 48 54C48 53.7348 47.8946 53.4804 47.7071 53.2929C47.5196 53.1054 47.2652 53 47 53H45V50.93C46.932 50.6866 48.7089 49.7469 49.9976 48.287C51.2863 46.8271 51.9982 44.9473 52 43Z" fill="white"/>
<defs>
<filter id="filter0_dd_1_2696" x="0" y="0" width="88" height="88" filterUnits="userSpaceOnUse" color-interpolation-filters="sRGB">
<feFlood flood-opacity="0" result="BackgroundImageFix"/>
<feColorMatrix in="SourceAlpha" type="matrix" values="0 0 0 0 0 0 0 0 0 0 0 0 0 0 0 0 0 0 127 0" result="hardAlpha"/>
<feMorphology radius="6" operator="dilate" in="SourceAlpha" result="effect1_dropShadow_1_2696"/>
<feOffset/>
<feComposite in2="hardAlpha" operator="out"/>
<feColorMatrix type="matrix" values="0 0 0 0 0.262745 0 0 0 0 0.52549 0 0 0 0 1 0 0 0 0.4 0"/>
<feBlend mode="normal" in2="BackgroundImageFix" result="effect1_dropShadow_1_2696"/>
<feColorMatrix in="SourceAlpha" type="matrix" values="0 0 0 0 0 0 0 0 0 0 0 0 0 0 0 0 0 0 127 0" result="hardAlpha"/>
<feMorphology radius="12" operator="dilate" in="SourceAlpha" result="effect2_dropShadow_1_2696"/>
<feOffset/>
<feComposite in2="hardAlpha" operator="out"/>
<feColorMatrix type="matrix" values="0 0 0 0 0.262745 0 0 0 0 0.521569 0 0 0 0 1 0 0 0 0.4 0"/>
<feBlend mode="normal" in2="effect1_dropShadow_1_2696" result="effect2_dropShadow_1_2696"/>
<feBlend mode="normal" in="SourceGraphic" in2="effect2_dropShadow_1_2696" result="shape"/>
</filter>
</defs>
</svg>
