<svg width="24" height="24" viewBox="0 0 24 24" fill="none" xmlns="http://www.w3.org/2000/svg">
<path d="M16.1753 18.1869C15.4677 18.4321 14.6237 18.5683 13.6258 18.6219L11.9651 18.7152C7.79908 18.9241 6.05723 17.3496 5.8387 13.181L5.62465 9.03431C5.41578 4.8683 6.98318 3.1142 11.1492 2.90533L12.8099 2.81198C13.2396 2.79252 13.6448 2.78721 14.0203 2.81536C13.5727 3.32693 13.1493 3.9796 12.7361 4.74887L10.7051 8.54246C8.67659 12.3264 9.38947 14.6501 13.1611 16.6856L14.6804 17.5068C15.2044 17.7921 15.7027 18.0188 16.1753 18.1869Z" stroke="white" stroke-width="1.5" stroke-linecap="round" stroke-linejoin="round"/>
<path d="M19.162 8.78358L19.2084 13.0767C19.2546 16.7828 17.9913 18.5969 14.8899 19.0506C14.3948 19.1311 13.8489 19.1727 13.2523 19.1752L11.5253 19.1879C7.23957 19.2222 5.49502 17.5298 5.44862 13.2367L5.39982 8.93392C5.39109 8.06075 5.44745 7.28485 5.59313 6.62086C6.15146 3.99149 7.9287 2.88514 11.3607 2.8548L13.0755 2.83477C17.3783 2.78598 19.1156 4.49048 19.162 8.78358Z" fill="white" stroke="white" stroke-width="1.5" stroke-linecap="round" stroke-linejoin="round"/>
<path d="M9.94727 9.08252L14.9507 9.11891" stroke="#4385FF" stroke-width="1.5" stroke-linecap="round" stroke-linejoin="round"/>
<path d="M9.91943 13.0746L12.9122 13.1007" stroke="#4385FF" stroke-width="1.5" stroke-linecap="round" stroke-linejoin="round"/>
</svg>
