<svg width="100" height="32" viewBox="0 0 100 32" fill="none" xmlns="http://www.w3.org/2000/svg">
<path d="M32.5094 0H16.7683C9.50845 0 3.46881 5.80258 3.37242 13.0917C3.27106 20.7271 9.59092 26.9058 17.2543 26.5297C24.0441 26.1964 29.5243 20.6433 29.7996 13.823C29.9089 11.0973 29.1994 8.54624 27.8986 6.39521C27.5042 5.74372 27.678 4.89568 28.2852 4.43674L32.8413 0.993702C33.2626 0.675438 33.038 0 32.5094 0Z" fill="#4385FF"/>
<path d="M0.662631 32H16.4037C23.6635 32 29.7032 26.1975 29.7996 18.9083C29.9019 11.274 23.5811 5.09526 15.9177 5.47139C9.12787 5.80462 3.64767 11.3578 3.37242 18.178C3.26311 20.9037 3.97261 23.4548 5.27335 25.6058C5.66784 26.2573 5.49395 27.1054 4.8868 27.5643L0.331733 31.0063C-0.0905848 31.3256 0.133989 32 0.662631 32Z" fill="#F66688"/>
<path d="M29.5223 16.014C28.2315 9.77743 22.5844 5.14415 15.9177 5.47139C9.87313 5.76771 4.86891 10.2034 3.64966 15.9861C4.94046 22.2227 10.5876 26.8569 17.2542 26.5297C23.2999 26.2324 28.3031 21.7966 29.5223 16.014Z" fill="#181449"/>
<path d="M42.2068 25.4283C41.2896 25.2009 40.4996 24.8936 39.8358 24.5075L40.1498 20.9826C40.9358 21.4735 41.7616 21.8556 42.6261 22.127C43.4906 22.3994 44.2895 22.535 45.0239 22.535C45.8625 22.535 46.5432 22.3594 47.0679 22.0093C47.5916 21.6591 47.8539 21.1941 47.8539 20.6145C47.8539 20.1406 47.679 19.7774 47.3302 19.523C46.9804 19.2686 46.4299 18.9932 45.6797 18.6949L45.0507 18.4315C44.9633 18.3966 44.8669 18.3567 44.7625 18.3128C44.6582 18.2689 44.535 18.221 44.3959 18.1681C43.4171 17.7651 42.6311 17.3839 42.0378 17.0238C41.4436 16.6646 40.9329 16.1598 40.5056 15.5113C40.0773 14.8628 39.8636 14.0207 39.8636 12.9861C39.8636 11.302 40.431 9.97807 41.5668 9.01331C42.7016 8.04854 44.2826 7.56665 46.3087 7.56665C47.8459 7.56665 49.418 7.88192 51.0248 8.51346L50.4484 11.9864C49.8015 11.6183 49.1079 11.329 48.3656 11.1184C47.6234 10.9079 46.9198 10.8032 46.256 10.8032C45.4343 10.8032 44.7973 10.9658 44.3432 11.29C43.8891 11.6143 43.6615 12.0483 43.6615 12.592C43.6615 13.0659 43.8185 13.4341 44.1335 13.6965C44.4475 13.9599 44.9543 14.2402 45.6529 14.5385L46.727 14.9596C47.7396 15.3457 48.5783 15.7228 49.2421 16.0909C49.9059 16.4591 50.4733 16.9899 50.9453 17.6823C51.4173 18.3757 51.6528 19.2736 51.6528 20.379C51.6528 22.0801 51.0764 23.404 49.9237 24.3518C48.7711 25.2986 47.1633 25.7726 45.1024 25.7726C44.0888 25.7706 43.1239 25.6568 42.2068 25.4283Z" fill="black"/>
<path d="M54.0366 11.8806H57.6527V14.2222C58.2111 13.2923 58.858 12.6089 59.5913 12.1699C60.3247 11.7319 61.1802 11.5125 62.159 11.5125C63.6088 11.5125 64.7436 11.9464 65.5654 12.8144C66.3862 13.6824 66.7966 14.8886 66.7966 16.4321V25.4293H63.102V17.0107C63.102 16.3094 62.9272 15.7606 62.5784 15.3665C62.2286 14.9725 61.7566 14.7749 61.1634 14.7749C60.4648 14.7749 59.801 15.0383 59.172 15.5641C58.543 16.0899 58.063 16.7573 57.7312 17.5635V25.4293H54.0366V11.8806Z" fill="black"/>
<path d="M70.3073 24.0345C69.4865 22.8423 69.0761 21.22 69.0761 19.1677C69.0761 16.6775 69.7051 14.7789 70.9621 13.4719C72.2201 12.1659 74.0277 11.5125 76.3857 11.5125C77.7133 11.5125 79.2684 11.723 81.0501 12.144V25.4293H77.5394L77.6179 23.2723H77.5135C77.0594 24.0973 76.5049 24.7279 75.8501 25.1669C75.1952 25.6049 74.4569 25.8244 73.6361 25.8244C72.238 25.8234 71.1281 25.2277 70.3073 24.0345ZM76.02 21.7198C76.5437 21.1412 77.0326 20.37 77.4877 19.4052V14.9854C76.9282 14.8278 76.3698 14.749 75.8103 14.749C74.762 14.749 73.972 15.1091 73.4394 15.8275C72.9068 16.5468 72.6405 17.6074 72.6405 19.0101C72.6405 20.1156 72.7975 20.9875 73.1125 21.6281C73.4265 22.2686 73.8637 22.5878 74.4222 22.5878C74.9627 22.5878 75.4953 22.2985 76.02 21.7198Z" fill="black"/>
<path d="M87.674 19.5359V25.4283H83.9794V6.19873H87.674V16.8262L91.8922 11.8806H96.2674L90.8697 17.9575L96.5556 25.2706L92.547 25.8233L87.674 19.5359Z" fill="black"/>
</svg>
