<svg width="24" height="24" viewBox="0 0 24 24" fill="none" xmlns="http://www.w3.org/2000/svg">
<path d="M7.08016 2.00006C9.88016 2.00006 12.1602 4.27008 12.1602 7.08008C12.1602 9.88008 9.89015 12.16 7.08015 12.16C4.28015 12.16 2.00015 9.89008 2.00015 7.08008C2.00015 4.27008 4.27016 2.00006 7.08016 2.00006Z" fill="white" stroke="white" stroke-width="1.5" stroke-linecap="round" stroke-linejoin="round"/>
<path d="M9.22043 9.26996L7.08043 5L4.94043 9.26996" stroke="#4385FF" stroke-width="1.5" stroke-linecap="round" stroke-linejoin="round"/>
<path d="M5.33057 8.50977L8.85057 8.50977" stroke="#4385FF" stroke-width="1.5" stroke-linecap="round" stroke-linejoin="round"/>
<path d="M18.9799 22.0001L15.0599 22.0001C12.9899 22.0001 11.9899 21.0001 12.0399 18.9801L12.0399 15.0601C11.9899 12.9901 12.9899 11.9901 15.0599 12.0401L18.9799 12.0401C20.9999 12.0001 21.9999 13.0001 21.9999 15.0701L21.9999 18.9901C21.9999 21.0001 20.9999 22.0001 18.9799 22.0001Z" fill="white" stroke="white" stroke-width="1.5" stroke-linecap="round" stroke-linejoin="round"/>
<path d="M19.0601 15.67H15.0001" stroke="#4385FF" stroke-width="1.5" stroke-linecap="round" stroke-linejoin="round"/>
<path d="M17.02 14.9901V15.67" stroke="#4385FF" stroke-width="1.5" stroke-linecap="round" stroke-linejoin="round"/>
<path d="M18.0401 15.6601C18.0401 17.4101 16.6701 18.8301 14.9901 18.8301" stroke="#4385FF" stroke-width="1.5" stroke-linecap="round" stroke-linejoin="round"/>
<path d="M19.0601 18.8301C18.3301 18.8301 17.6701 18.4401 17.2101 17.8201" stroke="#4385FF" stroke-width="1.5" stroke-linecap="round" stroke-linejoin="round"/>
<path d="M22.0001 9C22.0001 5.13 18.8701 2 15.0001 2L16.0501 3.75" stroke="white" stroke-width="1.5" stroke-linecap="round" stroke-linejoin="round"/>
<path d="M2.00012 15C2.00012 18.87 5.13012 22 9.00012 22L7.95012 20.25" stroke="white" stroke-width="1.5" stroke-linecap="round" stroke-linejoin="round"/>
</svg>
